<svg width="36" height="36" viewBox="0 0 36 36" fill="none" xmlns="http://www.w3.org/2000/svg">
<rect width="36" height="36" rx="5" fill="#3C3D6F"/>
<path d="M18 24.6667H25.5" stroke="white" stroke-width="2" stroke-linecap="round" stroke-linejoin="round"/>
<path d="M21.75 10.9167C22.0815 10.5852 22.5312 10.3989 23 10.3989C23.2321 10.3989 23.462 10.4447 23.6765 10.5335C23.891 10.6223 24.0858 10.7525 24.25 10.9167C24.4142 11.0808 24.5444 11.2757 24.6332 11.4902C24.722 11.7047 24.7678 11.9345 24.7678 12.1667C24.7678 12.3988 24.722 12.6287 24.6332 12.8432C24.5444 13.0577 24.4142 13.2525 24.25 13.4167L13.8333 23.8334L10.5 24.6667L11.3333 21.3334L21.75 10.9167Z" stroke="white" stroke-width="2" stroke-linecap="round" stroke-linejoin="round"/>
</svg>
