<svg width="93" height="17" viewBox="0 0 93 17" fill="none" xmlns="http://www.w3.org/2000/svg">
<path d="M0.672 16V0.489999H3.51V13.668H10.748V16H0.672ZM18.3531 4.978C19.8638 4.978 20.9858 5.34467 21.7191 6.078C22.4525 6.81133 22.8191 7.94067 22.8191 9.466V16H20.2011V14.35C19.9518 14.922 19.5558 15.3693 19.0131 15.692C18.4851 16.0147 17.8691 16.176 17.1651 16.176C16.4465 16.176 15.7938 16.0293 15.2071 15.736C14.6205 15.4427 14.1585 15.0393 13.8211 14.526C13.4838 14.0127 13.3151 13.4407 13.3151 12.81C13.3151 12.018 13.5131 11.3947 13.9091 10.94C14.3198 10.4853 14.9798 10.1553 15.8891 9.95C16.7985 9.74467 18.0525 9.642 19.6511 9.642H20.2011V9.136C20.2011 8.40267 20.0398 7.87467 19.7171 7.552C19.4091 7.22933 18.8885 7.068 18.1551 7.068C17.5831 7.068 16.9818 7.17067 16.3511 7.376C15.7351 7.56667 15.1265 7.838 14.5251 8.19L13.7551 6.298C14.3565 5.91667 15.0825 5.60133 15.9331 5.352C16.7838 5.10267 17.5905 4.978 18.3531 4.978ZM17.7151 14.196C18.4485 14.196 19.0425 13.954 19.4971 13.47C19.9665 12.9713 20.2011 12.3333 20.2011 11.556V11.094H19.8051C18.8225 11.094 18.0598 11.138 17.5171 11.226C16.9745 11.314 16.5858 11.468 16.3511 11.688C16.1165 11.908 15.9991 12.2087 15.9991 12.59C15.9991 13.0593 16.1605 13.448 16.4831 13.756C16.8058 14.0493 17.2165 14.196 17.7151 14.196ZM32.214 14.108C32.5367 14.108 32.874 14.086 33.226 14.042L33.094 16.088C32.654 16.132 32.2507 16.154 31.884 16.154C30.3733 16.154 29.2587 15.8093 28.54 15.12C27.8213 14.416 27.462 13.3747 27.462 11.996V7.31H25.394V5.242H27.462V2.03H30.212V5.242H33.05V7.31H30.212V11.952C30.212 13.3893 30.8793 14.108 32.214 14.108ZM41.2847 14.108C41.6074 14.108 41.9447 14.086 42.2967 14.042L42.1647 16.088C41.7247 16.132 41.3214 16.154 40.9547 16.154C39.444 16.154 38.3294 15.8093 37.6107 15.12C36.892 14.416 36.5327 13.3747 36.5327 11.996V7.31H34.4647V5.242H36.5327V2.03H39.2827V5.242H42.1207V7.31H39.2827V11.952C39.2827 13.3893 39.95 14.108 41.2847 14.108ZM54.4438 11.116H47.1178C47.2058 12.1133 47.5064 12.854 48.0198 13.338C48.5331 13.822 49.2664 14.064 50.2198 14.064C51.4078 14.064 52.4931 13.6827 53.4758 12.92L54.2678 14.812C53.7691 15.2227 53.1384 15.5527 52.3758 15.802C51.6278 16.0513 50.8724 16.176 50.1098 16.176C48.3498 16.176 46.9564 15.6773 45.9298 14.68C44.9178 13.6827 44.4118 12.3187 44.4118 10.588C44.4118 9.488 44.6318 8.51267 45.0718 7.662C45.5118 6.81133 46.1278 6.15133 46.9198 5.682C47.7264 5.21267 48.6358 4.978 49.6478 4.978C51.1291 4.978 52.2951 5.45467 53.1458 6.408C54.0111 7.36133 54.4438 8.674 54.4438 10.346V11.116ZM49.7138 6.914C48.9804 6.914 48.3864 7.14867 47.9318 7.618C47.4918 8.08733 47.2204 8.762 47.1178 9.642H52.0898C52.0604 8.74733 51.8404 8.07267 51.4298 7.618C51.0191 7.14867 50.4471 6.914 49.7138 6.914ZM62.4133 4.978C63.9239 4.978 65.0459 5.34467 65.7793 6.078C66.5126 6.81133 66.8793 7.94067 66.8793 9.466V16H64.2613V14.35C64.0119 14.922 63.6159 15.3693 63.0733 15.692C62.5453 16.0147 61.9293 16.176 61.2253 16.176C60.5066 16.176 59.8539 16.0293 59.2673 15.736C58.6806 15.4427 58.2186 15.0393 57.8813 14.526C57.5439 14.0127 57.3753 13.4407 57.3753 12.81C57.3753 12.018 57.5733 11.3947 57.9693 10.94C58.3799 10.4853 59.0399 10.1553 59.9493 9.95C60.8586 9.74467 62.1126 9.642 63.7113 9.642H64.2613V9.136C64.2613 8.40267 64.0999 7.87467 63.7773 7.552C63.4693 7.22933 62.9486 7.068 62.2153 7.068C61.6433 7.068 61.0419 7.17067 60.4113 7.376C59.7953 7.56667 59.1866 7.838 58.5853 8.19L57.8153 6.298C58.4166 5.91667 59.1426 5.60133 59.9933 5.352C60.8439 5.10267 61.6506 4.978 62.4133 4.978ZM61.7753 14.196C62.5086 14.196 63.1026 13.954 63.5573 13.47C64.0266 12.9713 64.2613 12.3333 64.2613 11.556V11.094H63.8653C62.8826 11.094 62.1199 11.138 61.5773 11.226C61.0346 11.314 60.6459 11.468 60.4113 11.688C60.1766 11.908 60.0593 12.2087 60.0593 12.59C60.0593 13.0593 60.2206 13.448 60.5433 13.756C60.8659 14.0493 61.2766 14.196 61.7753 14.196ZM81.5541 16H78.1441L73.5241 11.094V16H70.7741V0.489999H73.5241V9.95L77.8581 5.264H81.2021L76.3621 10.412L81.5541 16ZM88.2461 4.978C89.7568 4.978 90.8788 5.34467 91.6121 6.078C92.3454 6.81133 92.7121 7.94067 92.7121 9.466V16H90.0941V14.35C89.8448 14.922 89.4488 15.3693 88.9061 15.692C88.3781 16.0147 87.7621 16.176 87.0581 16.176C86.3394 16.176 85.6868 16.0293 85.1001 15.736C84.5134 15.4427 84.0514 15.0393 83.7141 14.526C83.3768 14.0127 83.2081 13.4407 83.2081 12.81C83.2081 12.018 83.4061 11.3947 83.8021 10.94C84.2128 10.4853 84.8728 10.1553 85.7821 9.95C86.6914 9.74467 87.9454 9.642 89.5441 9.642H90.0941V9.136C90.0941 8.40267 89.9328 7.87467 89.6101 7.552C89.3021 7.22933 88.7814 7.068 88.0481 7.068C87.4761 7.068 86.8748 7.17067 86.2441 7.376C85.6281 7.56667 85.0194 7.838 84.4181 8.19L83.6481 6.298C84.2494 5.91667 84.9754 5.60133 85.8261 5.352C86.6768 5.10267 87.4834 4.978 88.2461 4.978ZM87.6081 14.196C88.3414 14.196 88.9354 13.954 89.3901 13.47C89.8594 12.9713 90.0941 12.3333 90.0941 11.556V11.094H89.6981C88.7154 11.094 87.9528 11.138 87.4101 11.226C86.8674 11.314 86.4788 11.468 86.2441 11.688C86.0094 11.908 85.8921 12.2087 85.8921 12.59C85.8921 13.0593 86.0534 13.448 86.3761 13.756C86.6988 14.0493 87.1094 14.196 87.6081 14.196Z" fill="#3C3D6F"/>
</svg>
