<svg width="28" height="28" viewBox="0 0 28 28" fill="none" xmlns="http://www.w3.org/2000/svg">
<g clip-path="url(#clip0)">
<path d="M15.8942 18.5998C15.7897 18.4853 15.6574 18.3996 15.5207 18.3283C15.223 18.173 14.8975 18.0789 14.5742 17.9939V20.4986C15.0989 20.4393 15.7012 20.2489 15.9766 19.7591C16.1082 19.5251 16.1343 19.2377 16.0807 18.9772C16.0517 18.8361 15.9917 18.7066 15.8942 18.5998Z" fill="#F1D204"/>
<path d="M15.9688 19.7644C15.9699 19.7625 15.9705 19.7613 15.9717 19.7593C15.9707 19.761 15.9697 19.7627 15.9688 19.7644Z" fill="#F1D204"/>
<path d="M12.1047 14.5954C12.0145 14.7271 11.9579 14.8767 11.9423 15.0358C11.9267 15.1952 11.9355 15.3725 11.996 15.5225C12.0537 15.6654 12.1744 15.771 12.2991 15.856C12.439 15.9511 12.5928 16.0254 12.7495 16.0884C12.8809 16.1413 13.0288 16.1919 13.1882 16.2408V13.9744C12.7855 14.0603 12.3456 14.2437 12.1047 14.5954Z" fill="#F1D204"/>
<path d="M15.9791 19.7405C15.9758 19.7463 15.9722 19.7525 15.9688 19.7589C15.9728 19.7514 15.9761 19.7459 15.9791 19.7405Z" fill="#F1D204"/>
<path d="M15.4581 6.09235C17.5882 4.30303 19.0114 0.271963 18.1355 0.0956537C16.9717 -0.138701 14.4445 0.888914 13.223 1.06997C11.4905 1.27915 9.6035 -0.808756 8.54432 0.355045C7.68313 1.30129 9.16174 4.74249 11.475 6.24165C4.57341 9.63369 -5.1273 26.662 11.7961 27.8976C35.2125 29.6073 23.4871 9.39782 15.4581 6.09235ZM17.4692 19.5217C17.3972 20.1856 17.0453 20.7859 16.5194 21.1935C15.9641 21.6239 15.2677 21.824 14.5757 21.8801V22.6136C14.5757 22.8099 14.49 22.9997 14.343 23.1296C14.1411 23.3083 13.8443 23.3524 13.5993 23.2394C13.3573 23.1281 13.1983 22.8799 13.1983 22.6136V21.8119C13.0796 21.7894 12.9618 21.7625 12.8454 21.7306C12.1987 21.5529 11.5988 21.2065 11.1606 20.6941C10.9423 20.4386 10.7643 20.1488 10.6413 19.8359C10.6091 19.7542 10.5804 19.6709 10.5553 19.5867C10.5326 19.5104 10.5092 19.433 10.5011 19.3535C10.4874 19.2202 10.5138 19.0842 10.576 18.9655C10.7037 18.7213 10.9727 18.5738 11.2475 18.5983C11.5179 18.6222 11.7549 18.8099 11.84 19.0676C11.8662 19.147 11.884 19.2284 11.9134 19.3069C11.9426 19.3849 11.9779 19.4608 12.0193 19.533C12.1011 19.6752 12.2037 19.8063 12.3217 19.9201C12.5651 20.1545 12.8751 20.3069 13.1983 20.3976V17.6724C12.5664 17.5088 11.9141 17.2976 11.3923 16.8918C11.1387 16.6946 10.9235 16.4495 10.7826 16.1594C10.6339 15.8532 10.5723 15.5121 10.5698 15.1733C10.5672 14.8294 10.6326 14.4884 10.7761 14.175C10.9105 13.8815 11.104 13.618 11.3412 13.3996C11.8485 12.9327 12.5224 12.6723 13.1983 12.5766V12.5166V11.8152C13.1983 11.619 13.2841 11.4291 13.431 11.2991C13.633 11.1205 13.9296 11.0764 14.1748 11.1893C14.4167 11.3007 14.5757 11.5489 14.5757 11.8152V12.5166V12.5724C14.6658 12.5838 14.7556 12.5974 14.8449 12.6136C15.5087 12.7337 16.1578 13.0078 16.6432 13.4863C16.8732 13.7129 17.0614 13.983 17.1938 14.2775C17.2307 14.3597 17.2631 14.4437 17.2911 14.5294C17.3172 14.6094 17.3434 14.6917 17.3558 14.7751C17.3757 14.9082 17.3554 15.0458 17.2985 15.1676C17.1817 15.4172 16.9199 15.5761 16.6444 15.5643C16.3738 15.5525 16.1285 15.3763 16.0316 15.1233C16.0028 15.048 15.9883 14.9684 15.9589 14.8933C15.9292 14.8174 15.8907 14.7449 15.8463 14.6764C15.7602 14.5433 15.6485 14.4292 15.521 14.3352C15.2449 14.1314 14.9101 14.0252 14.5755 13.9658V16.5737C14.9732 16.6689 15.3711 16.7727 15.7521 16.9229C16.3278 17.15 16.8734 17.4981 17.1877 18.0471C17.1389 17.9615 17.0915 17.8782 17.1894 18.0499C17.2854 18.2186 17.2396 18.1382 17.1913 18.0537C17.4414 18.4943 17.5235 19.0212 17.4692 19.5217Z" fill="#F1D204"/>
<path d="M15.9654 19.7764C15.9613 19.7835 15.9578 19.7899 15.9551 19.7947C15.9575 19.7905 15.961 19.7843 15.9654 19.7764Z" fill="#F1D204"/>
</g>
<defs>
<clipPath id="clip0">
<rect width="28" height="28" fill="white"/>
</clipPath>
</defs>
</svg>
