<svg width="28" height="28" viewBox="0 0 28 28" fill="none" xmlns="http://www.w3.org/2000/svg">
<g clip-path="url(#clip0)">
<path d="M1.90039 20.8465V25.3853C1.90039 25.6614 2.12474 25.8915 2.40661 25.8915H5.91565C6.19178 25.8915 6.42188 25.6671 6.42188 25.3853V17.4008L3.87351 19.9491C3.33277 20.4841 2.64247 20.7948 1.90039 20.8465Z" fill="#FD8F5F"/>
<path d="M8.17578 17.3444V25.3864C8.17578 25.6625 8.40013 25.8926 8.682 25.8926H12.1911C12.4672 25.8926 12.6973 25.6683 12.6973 25.3864V20.6521C11.8977 20.6348 11.1498 20.3184 10.5861 19.7547L8.17578 17.3444Z" fill="#FD8F5F"/>
<path d="M14.4375 20.1498V25.3846C14.4375 25.6607 14.6618 25.8908 14.9437 25.8908H18.4528C18.7289 25.8908 18.959 25.6665 18.959 25.3846V15.7261L14.938 19.7471C14.7827 19.9024 14.6158 20.0347 14.4375 20.1498Z" fill="#FD8F5F"/>
<path d="M24.8813 9.78906L20.6992 13.9711V25.3842C20.6992 25.6603 20.9236 25.8904 21.2054 25.8904H24.7145C24.9906 25.8904 25.2207 25.666 25.2207 25.3842V10.1055C25.1057 10.0077 25.0194 9.92137 24.9561 9.86384L24.8813 9.78906Z" fill="#FD8F5F"/>
<path d="M27.7617 2.3809C27.5949 2.20258 27.3418 2.11053 27.0196 2.11053C26.9909 2.11053 26.9564 2.11053 26.9276 2.11053C25.2939 2.18532 23.6659 2.26585 22.0322 2.34064C21.8136 2.35214 21.5145 2.36365 21.2786 2.5995C21.2038 2.67428 21.1463 2.76057 21.1003 2.86412C20.8587 3.3876 21.1981 3.727 21.3591 3.88807L21.7676 4.30225C22.0494 4.58988 22.3371 4.8775 22.6247 5.15938L12.7534 15.0365L8.31816 10.6013C8.05354 10.3367 7.69689 10.1871 7.31722 10.1871C6.93755 10.1871 6.58665 10.3367 6.32203 10.6013L0.414182 16.5034C-0.138061 17.0556 -0.138061 17.9473 0.414182 18.4995L0.678799 18.7641C0.943415 19.0287 1.30007 19.1783 1.67974 19.1783C2.05941 19.1783 2.41031 19.0287 2.67493 18.7641L7.31722 14.1218L11.7524 18.557C12.017 18.8216 12.3737 18.9712 12.7534 18.9712C13.133 18.9712 13.4839 18.8216 13.7543 18.557L24.8912 7.42012L26.151 8.67418C26.3006 8.82374 26.5077 9.03083 26.824 9.03083C26.9564 9.03083 27.0887 8.99632 27.2267 8.92154C27.3188 8.86976 27.3993 8.81224 27.4683 8.74321C27.7157 8.49585 27.7617 8.17946 27.7732 7.9321C27.8192 6.87363 27.871 5.81517 27.9228 4.75095L27.9976 3.1575C28.0148 2.82385 27.94 2.56498 27.7617 2.3809Z" fill="#FD8F5F"/>
</g>
<defs>
<clipPath id="clip0">
<rect width="28" height="28" fill="white"/>
</clipPath>
</defs>
</svg>
