<svg width="28" height="28" viewBox="0 0 28 28" fill="none" xmlns="http://www.w3.org/2000/svg">
<path d="M14.1577 19.2855C13.8198 19.6233 13.8198 20.1788 14.1577 20.5166C14.4955 20.8544 15.0509 20.8544 15.3888 20.5166C15.7266 20.1788 15.7266 19.6233 15.3888 19.2855C15.0509 18.9419 14.4955 18.9419 14.1577 19.2855Z" fill="#6A4D8A"/>
<path d="M9.85164 15.7402C9.51381 15.4024 8.95839 15.4024 8.62056 15.7402C8.28273 16.078 8.28273 16.6334 8.62056 16.9713C8.95839 17.3091 9.51381 17.3091 9.85164 16.9713C10.1895 16.6334 10.1895 16.0837 9.85164 15.7402Z" fill="#6A4D8A"/>
<path d="M23.728 1.77505C23.4589 1.12229 22.6343 0.0229039 20.1263 0C20.0977 0 20.0748 0 20.0462 0C18.5059 0 16.6736 0.406544 14.8699 1.15092C14.5378 1.28834 14.2171 1.43149 13.9079 1.58609L13.8908 1.56892C12.8601 0.566871 11.2167 0.566871 10.1861 1.56892L5.13574 6.47607C4.4658 7.12311 4.08789 8.01636 4.08789 8.94969V25.5722C4.08789 26.9121 5.17583 28 6.5157 28H17.5668C18.9067 28 19.9946 26.9121 19.9946 25.5722V8.94969C19.9946 8.47444 19.8973 8.00491 19.7083 7.58119C20.7791 6.97996 21.7124 6.29284 22.4282 5.57137C24.1803 3.79059 23.9971 2.42781 23.728 1.77505ZM7.12266 16.3591C7.12266 15.2025 8.06744 14.2577 9.22409 14.2577C10.3807 14.2577 11.3255 15.2025 11.3255 16.3591C11.3255 17.5157 10.3807 18.4605 9.22409 18.4605C8.06744 18.4605 7.12838 17.5215 7.12266 16.3591ZM8.90916 21.856C8.69157 21.6728 8.66294 21.3521 8.84045 21.1346L14.3603 14.4867C14.5435 14.2691 14.8642 14.2405 15.0818 14.418C15.2993 14.6012 15.328 14.9219 15.1505 15.1395L9.63063 21.7873C9.4474 22.0049 9.12675 22.0335 8.90916 21.856ZM14.7726 22.0049C13.6159 22.0049 12.6711 21.0601 12.6711 19.9035C12.6711 18.7468 13.6159 17.802 14.7726 17.802C15.9292 17.802 16.874 18.7468 16.874 19.9035C16.874 21.0601 15.9292 22.0049 14.7726 22.0049ZM17.103 6.56769C16.0494 7.00286 14.9672 7.31207 13.9824 7.46094C13.9824 7.50675 13.9881 7.54683 13.9881 7.59264C13.9881 8.70348 13.0891 9.60245 11.9783 9.60245C10.8674 9.60245 9.96846 8.70348 9.96846 7.59264C9.96846 6.4818 10.8674 5.58282 11.9783 5.58282C12.6425 5.58282 13.2265 5.90348 13.593 6.39591C14.5263 6.23558 15.5341 5.94356 16.5247 5.53701C16.874 5.39386 17.2004 5.24499 17.5096 5.09039L15.4826 3.11493C15.5398 3.09202 15.5971 3.06912 15.6544 3.04049C17.1946 2.40491 18.7922 2.04417 20.0519 2.04417C20.0691 2.04417 20.092 2.04417 20.1092 2.04417C21.3173 2.05562 21.7697 2.382 21.8384 2.55378C22.0503 3.08057 20.7047 5.08466 17.103 6.56769Z" fill="#6A4D8A"/>
</svg>
