<svg width="89" height="30" viewBox="0 0 89 30" fill="none" xmlns="http://www.w3.org/2000/svg">
<path d="M15.1699 20.663C14.8079 21.025 14.8079 21.6201 15.1699 21.9821C15.5319 22.344 16.127 22.344 16.4889 21.9821C16.8509 21.6201 16.8509 21.025 16.4889 20.663C16.127 20.2949 15.5319 20.2949 15.1699 20.663Z" fill="#6A4D8A"/>
<path d="M10.5553 16.8645C10.1934 16.5025 9.59828 16.5025 9.23632 16.8645C8.87435 17.2265 8.87435 17.8215 9.23632 18.1835C9.59828 18.5455 10.1934 18.5455 10.5553 18.1835C10.9173 17.8215 10.9173 17.2326 10.5553 16.8645Z" fill="#6A4D8A"/>
<path d="M25.4238 1.90184C25.1355 1.20245 24.252 0.0245399 21.5649 0C21.5342 0 21.5097 0 21.479 0C19.8287 0 17.8655 0.435583 15.933 1.23313C15.5772 1.38037 15.2336 1.53374 14.9023 1.69939L14.8839 1.68098C13.7796 0.607362 12.0189 0.607362 10.9146 1.68098L5.50356 6.93865C4.78577 7.6319 4.38086 8.58896 4.38086 9.58896V27.3988C4.38086 28.8344 5.5465 30 6.98209 30H18.8226C20.2582 30 21.4238 28.8344 21.4238 27.3988V9.58896C21.4238 9.07975 21.3195 8.57669 21.1171 8.1227C22.2643 7.47853 23.2643 6.74233 24.0312 5.96933C25.9085 4.06135 25.7121 2.60123 25.4238 1.90184ZM7.63239 17.5276C7.63239 16.2883 8.64466 15.2761 9.88393 15.2761C11.1232 15.2761 12.1355 16.2883 12.1355 17.5276C12.1355 18.7669 11.1232 19.7791 9.88393 19.7791C8.64466 19.7791 7.63853 18.773 7.63239 17.5276ZM9.5465 23.4172C9.31337 23.2209 9.2827 22.8773 9.47288 22.6442L15.387 15.5215C15.5833 15.2883 15.9269 15.2577 16.16 15.4479C16.3931 15.6442 16.4238 15.9877 16.2336 16.2209L10.3195 23.3436C10.1232 23.5767 9.77963 23.6074 9.5465 23.4172ZM15.8287 23.5767C14.5894 23.5767 13.5772 22.5644 13.5772 21.3252C13.5772 20.0859 14.5894 19.0736 15.8287 19.0736C17.068 19.0736 18.0802 20.0859 18.0802 21.3252C18.0802 22.5644 17.068 23.5767 15.8287 23.5767ZM18.3256 7.03681C17.1968 7.50307 16.0373 7.83436 14.9821 7.99387C14.9821 8.04294 14.9882 8.08589 14.9882 8.13497C14.9882 9.32515 14.025 10.2883 12.8348 10.2883C11.6447 10.2883 10.6815 9.32515 10.6815 8.13497C10.6815 6.94479 11.6447 5.9816 12.8348 5.9816C13.5465 5.9816 14.1723 6.32515 14.5649 6.85276C15.5649 6.68098 16.6447 6.3681 17.706 5.93252C18.0802 5.77914 18.4299 5.61963 18.7612 5.45399L16.5894 3.33742C16.6508 3.31288 16.7121 3.28834 16.7735 3.25767C18.4238 2.57669 20.1355 2.19018 21.4852 2.19018C21.5036 2.19018 21.5281 2.19018 21.5465 2.19018C22.841 2.20245 23.3256 2.55215 23.3993 2.7362C23.6263 3.30061 22.1845 5.44785 18.3256 7.03681Z" fill="#6A4D8A"/>
<path d="M47.566 7.31H52.588C53.92 7.31 54.952 7.634 55.684 8.282C56.428 8.93 56.8 9.848 56.8 11.036C56.8 12.224 56.428 13.148 55.684 13.808C54.94 14.468 53.908 14.798 52.588 14.798H49.042V20H47.566V7.31ZM52.444 13.574C54.376 13.574 55.342 12.728 55.342 11.036C55.342 9.368 54.376 8.534 52.444 8.534H49.042V13.574H52.444ZM64.4638 12.278L63.5098 12.368C62.6098 12.452 61.9558 12.734 61.5478 13.214C61.1518 13.694 60.9538 14.288 60.9538 14.996V20H59.4958V11.234H60.9178V12.764C61.4098 11.744 62.3758 11.174 63.8158 11.054L64.3378 11.018L64.4638 12.278ZM66.5615 20V11.234H68.0195V20H66.5615ZM66.4175 7.436H68.1815V9.074H66.4175V7.436ZM75.1731 20.126C74.3091 20.126 73.5591 19.94 72.9231 19.568C72.2871 19.196 71.7951 18.674 71.4471 18.002C71.1111 17.318 70.9431 16.52 70.9431 15.608C70.9431 14.696 71.1171 13.898 71.4651 13.214C71.8251 12.518 72.3231 11.978 72.9591 11.594C73.6071 11.21 74.3631 11.018 75.2271 11.018C75.8151 11.018 76.3911 11.126 76.9551 11.342C77.5191 11.546 77.9751 11.822 78.3231 12.17L77.8371 13.25C77.0091 12.578 76.1691 12.242 75.3171 12.242C74.4171 12.242 73.7151 12.536 73.2111 13.124C72.7071 13.712 72.4551 14.54 72.4551 15.608C72.4551 16.664 72.7071 17.48 73.2111 18.056C73.7151 18.632 74.4171 18.92 75.3171 18.92C76.1691 18.92 77.0091 18.584 77.8371 17.912L78.3231 18.992C77.9511 19.34 77.4831 19.616 76.9191 19.82C76.3551 20.024 75.7731 20.126 75.1731 20.126ZM88.1424 15.842H81.7344C81.7824 16.862 82.0584 17.636 82.5624 18.164C83.0664 18.68 83.7804 18.938 84.7044 18.938C85.7244 18.938 86.6604 18.59 87.5124 17.894L87.9984 18.956C87.6144 19.316 87.1224 19.604 86.5224 19.82C85.9224 20.024 85.3104 20.126 84.6864 20.126C83.3184 20.126 82.2384 19.724 81.4464 18.92C80.6664 18.116 80.2764 17.006 80.2764 15.59C80.2764 14.69 80.4504 13.898 80.7984 13.214C81.1464 12.518 81.6324 11.978 82.2564 11.594C82.8924 11.21 83.6124 11.018 84.4164 11.018C85.5804 11.018 86.4924 11.402 87.1524 12.17C87.8124 12.926 88.1424 13.97 88.1424 15.302V15.842ZM84.4344 12.152C83.6664 12.152 83.0484 12.392 82.5804 12.872C82.1244 13.352 81.8544 14.03 81.7704 14.906H86.8644C86.8404 14.018 86.6184 13.34 86.1984 12.872C85.7784 12.392 85.1904 12.152 84.4344 12.152Z" fill="#6A4D8A"/>
</svg>
