<svg width="92" height="92" viewBox="0 0 92 92" fill="none" xmlns="http://www.w3.org/2000/svg">
<rect width="92" height="92" rx="15" fill="#6A4D8A"/>
<g clip-path="url(#clip0)">
<path d="M24.3906 58.2241V66.329C24.3906 66.8221 24.7912 67.233 25.2946 67.233H31.5607C32.0538 67.233 32.4647 66.8324 32.4647 66.329V52.071L27.9141 56.6216C26.9484 57.577 25.7158 58.1317 24.3906 58.2241Z" fill="white"/>
<path d="M35.5859 51.9682V66.329C35.5859 66.8221 35.9866 67.233 36.4899 67.233H42.7561C43.2491 67.233 43.66 66.8324 43.66 66.329V57.8749C42.2322 57.844 40.8968 57.2791 39.8901 56.2724L35.5859 51.9682Z" fill="white"/>
<path d="M46.7832 56.9812V66.329C46.7832 66.8221 47.1838 67.233 47.6872 67.233H53.9533C54.4464 67.233 54.8573 66.8324 54.8573 66.329V49.0817L47.6769 56.2621C47.3995 56.5394 47.1016 56.7757 46.7832 56.9812Z" fill="white"/>
<path d="M65.4485 38.4806L57.9805 45.9486V66.329C57.9805 66.8221 58.3811 67.233 58.8844 67.233H65.1506C65.6437 67.233 66.0546 66.8324 66.0546 66.329V39.0456C65.8491 38.8709 65.695 38.7169 65.582 38.6141L65.4485 38.4806Z" fill="white"/>
<path d="M70.5745 25.2498C70.2766 24.9313 69.8246 24.767 69.2494 24.767C69.198 24.767 69.1364 24.767 69.085 24.767C66.1676 24.9005 63.2606 25.0443 60.3432 25.1779C59.9529 25.1984 59.4187 25.219 58.9975 25.6401C58.864 25.7737 58.7613 25.9277 58.6791 26.1126C58.2476 27.0474 58.8537 27.6535 59.1413 27.9411L59.8707 28.6807C60.374 29.1944 60.8876 29.708 61.4013 30.2113L43.7739 47.849L35.8539 39.929C35.3813 39.4565 34.7444 39.1894 34.0665 39.1894C33.3885 39.1894 32.7619 39.4565 32.2893 39.929L21.7396 50.4685C20.7535 51.4546 20.7535 53.0468 21.7396 54.033L22.2121 54.5055C22.6847 54.978 23.3216 55.2451 23.9995 55.2451C24.6775 55.2451 25.3041 54.978 25.7767 54.5055L34.0665 46.2157L41.9865 54.1357C42.459 54.6082 43.0959 54.8753 43.7739 54.8753C44.4518 54.8753 45.0785 54.6082 45.5613 54.1357L65.4486 34.2484L67.6982 36.4878C67.9653 36.7548 68.3351 37.1246 68.9001 37.1246C69.1364 37.1246 69.3726 37.063 69.6192 36.9295C69.7835 36.837 69.9273 36.7343 70.0506 36.611C70.4923 36.1693 70.5745 35.6043 70.595 35.1626C70.6772 33.2725 70.7697 31.3824 70.8621 29.482L70.9957 26.6365C71.0265 26.0407 70.8929 25.5785 70.5745 25.2498Z" fill="white"/>
</g>
<defs>
<clipPath id="clip0">
<rect width="50" height="50" fill="white" transform="translate(21 21)"/>
</clipPath>
</defs>
</svg>
