<svg width="92" height="92" viewBox="0 0 92 92" fill="none" xmlns="http://www.w3.org/2000/svg">
<rect width="92" height="92" rx="15" fill="#F1D204"/>
<g clip-path="url(#clip0)">
<path d="M69.7048 22.2942C69.5086 22.1084 69.2736 22.015 68.9992 22.015C63.8847 22.015 59.6618 22.7105 56.3305 24.102C52.9997 25.4937 49.4919 28.0217 45.8078 31.6858C44.2403 33.2732 42.5156 35.1839 40.6346 37.4178L29.4944 38.0054C29.1808 38.0453 28.9261 38.2017 28.7302 38.4759L22.146 49.7638C21.9107 50.1557 21.9599 50.5379 22.2929 50.9103L24.174 52.7914C24.3504 52.9679 24.5756 53.0559 24.8501 53.0559C24.9677 53.0559 25.0557 53.046 25.1144 53.0263L33.2274 50.5273L41.4872 58.7876L38.9886 66.8998C38.8909 67.253 38.9693 67.5661 39.2239 67.8406L41.1051 69.722C41.3207 69.8977 41.5462 69.9862 41.7812 69.9862C41.9578 69.9862 42.1145 69.9467 42.2516 69.8684L53.5394 63.2842C53.8138 63.0884 53.9703 62.834 54.0097 62.5204L54.5973 51.3798C56.8314 49.4984 58.7425 47.7741 60.3294 46.2063C63.8185 42.6982 66.3017 39.1665 67.7807 35.6099C69.2605 32.0531 70 27.8349 70 22.9558C69.9997 22.7011 69.9018 22.4808 69.7048 22.2942ZM62.5924 33.4203C62.0442 33.9686 61.3776 34.2433 60.5937 34.2433C59.8098 34.2433 59.1439 33.9689 58.5949 33.4203C58.0467 32.8715 57.7719 32.2052 57.7719 31.4212C57.7719 30.6376 58.0464 29.9712 58.5949 29.4225C59.1435 28.874 59.8098 28.5995 60.5937 28.5995C61.3776 28.5995 62.0439 28.8737 62.5924 29.4225C63.141 29.9712 63.4154 30.6376 63.4154 31.4212C63.4154 32.2053 63.1417 32.8711 62.5924 33.4203Z" fill="white"/>
</g>
<defs>
<clipPath id="clip0">
<rect width="48" height="48" fill="white" transform="translate(22 22)"/>
</clipPath>
</defs>
</svg>
