<svg width="158" height="30" viewBox="0 0 158 30" fill="none" xmlns="http://www.w3.org/2000/svg">
<g clip-path="url(#clip0)">
<path d="M14.4887 10.0834C13.786 10.7652 12.9898 11.5382 12.5858 12.4452C12.4647 12.7169 12.4894 13.0316 12.6517 13.2813C12.8137 13.531 13.0912 13.6816 13.3887 13.6816H16.4434C16.9288 13.6816 17.3223 13.288 17.3223 12.8027C17.3223 12.3173 16.9288 11.9238 16.4434 11.9238H15.1284C15.3205 11.7256 15.5207 11.5311 15.713 11.3448C16.5766 10.5066 17.3225 9.78264 17.3225 8.8765C17.3225 7.53593 16.2319 6.44531 14.8915 6.44531C13.9119 6.44531 13.0332 7.02827 12.6528 7.93076C12.4642 8.37799 12.6739 8.89343 13.1211 9.08203C13.5686 9.27086 14.084 9.06097 14.2724 8.61374C14.3777 8.36426 14.6205 8.20312 14.8915 8.20312C15.2568 8.20312 15.5553 8.49586 15.5645 8.85933C15.4969 9.10469 14.8911 9.69269 14.4887 10.0834Z" fill="#FD8F5F"/>
<path d="M1.52996 9.84363L1.90212 9.47124V11.9168H1.28757C0.802117 11.9168 0.408669 12.3103 0.408669 12.7957C0.408669 13.2812 0.802117 13.6746 1.28757 13.6746H4.27402C4.75925 13.6746 5.15293 13.2812 5.15293 12.7957C5.15293 12.3103 4.75925 11.9168 4.27402 11.9168H3.65993V7.34791C3.65993 6.99245 3.4457 6.67179 3.11726 6.53606C2.78881 6.39988 2.4107 6.47541 2.15939 6.72672L0.286446 8.60126C-0.0566481 8.94458 -0.0564193 9.50122 0.287132 9.84432C0.630455 10.1872 1.18687 10.1872 1.52996 9.84363Z" fill="#FD8F5F"/>
<path d="M27.3328 15.0623C26.621 15.0623 25.9518 15.3397 25.4485 15.8432C24.9451 16.3467 24.668 17.0162 24.668 17.728C24.668 19.1979 25.8634 20.3938 27.3328 20.3941C28.0447 20.3941 28.7139 20.1167 29.2172 19.6131C29.7205 19.1096 29.9977 18.4401 29.9977 17.7283C29.9977 16.2582 28.8023 15.0623 27.3328 15.0623Z" fill="#FD8F5F"/>
<path d="M14.9266 20.3938C15.6384 20.3938 16.3077 20.1164 16.811 19.6129C17.3143 19.1093 17.5912 18.4401 17.5912 17.728C17.5912 16.2582 16.3958 15.0623 14.9266 15.0623C14.9264 15.0623 14.9266 15.0623 14.9264 15.0623C14.2145 15.0623 13.5453 15.3394 13.042 15.8432C12.5389 16.3465 12.2617 17.016 12.2617 17.728C12.2617 19.1979 13.4572 20.3938 14.9266 20.3938Z" fill="#FD8F5F"/>
<path d="M8.04474 17.807C8.04474 17.3488 7.67349 16.9775 7.21573 16.9775C6.75774 16.9775 6.38672 17.3488 6.38672 17.807C6.38672 18.265 6.75774 18.6365 7.21573 18.6365C7.67349 18.6365 8.04474 18.265 8.04474 17.807Z" fill="#FD8F5F"/>
<path d="M11.2379 17.807C11.2379 17.3488 10.8669 16.9775 10.4091 16.9775C9.9511 16.9775 9.58008 17.3488 9.58008 17.807C9.58008 18.265 9.9511 18.6365 10.4091 18.6365C10.8669 18.6365 11.2379 18.265 11.2379 17.807Z" fill="#FD8F5F"/>
<path d="M20.2752 17.807C20.2752 17.3488 19.9042 16.9775 19.4462 16.9775C18.9884 16.9775 18.6172 17.3488 18.6172 17.807C18.6172 18.265 18.9884 18.6365 19.4462 18.6365C19.9042 18.6365 20.2752 18.265 20.2752 17.807Z" fill="#FD8F5F"/>
<path d="M23.4686 17.807C23.4686 17.3488 23.0975 16.9775 22.6396 16.9775C22.1818 16.9775 21.8105 17.3488 21.8105 17.807C21.8105 18.265 22.1818 18.6365 22.6396 18.6365C23.0975 18.6365 23.4686 18.265 23.4686 17.807Z" fill="#FD8F5F"/>
<path d="M17.2025 21.7731H12.832C12.3466 21.7731 11.9531 22.1665 11.9531 22.652C11.9531 23.1374 12.3466 23.5309 12.832 23.5309H17.2025C17.688 23.5309 18.0814 23.1374 18.0814 22.652C18.0814 22.1665 17.688 21.7731 17.2025 21.7731Z" fill="#FD8F5F"/>
<path d="M4.52751 15.1758L2.09198 17.6185L1.50055 17.0268C1.15746 16.6832 0.601044 16.6832 0.257721 17.0263C-0.0858307 17.3694 -0.0858307 17.9258 0.257263 18.2692L1.47102 19.4836C1.63582 19.6487 1.85944 19.7414 2.09267 19.7414H2.09312C2.32636 19.7414 2.5502 19.6484 2.715 19.4832L5.77217 16.417C6.11504 16.0733 6.11412 15.5168 5.77034 15.1742C5.42679 14.8313 4.87015 14.8323 4.52751 15.1758Z" fill="#FD8F5F"/>
<path d="M27.298 13.7011C28.623 13.7011 29.6907 12.6441 29.7287 11.2946C29.7383 10.9499 29.69 10.0747 29.0327 9.39857C28.9249 9.28757 28.7869 9.16946 28.6141 9.06166L29.4946 7.8756C29.6925 7.60895 29.7234 7.25327 29.5742 6.95663C29.425 6.66 29.121 6.47278 28.7889 6.47278H26.1538C25.6683 6.47278 25.2749 6.86623 25.2749 7.35168C25.2749 7.83714 25.6683 8.23059 26.1538 8.23059H27.0419L26.4475 9.03099C26.2495 9.29764 26.2186 9.65309 26.368 9.94995C26.5173 10.2466 26.821 10.4338 27.1531 10.4338C27.4413 10.4338 27.6498 10.4979 27.7725 10.624C27.9279 10.784 27.9768 11.0587 27.9716 11.2454C27.9606 11.6368 27.6647 11.9433 27.298 11.9433C27.0272 11.9433 26.7844 11.7822 26.6791 11.5329C26.4907 11.0854 25.975 10.8758 25.5278 11.0644C25.0806 11.253 24.8709 11.7684 25.0595 12.2157C25.4399 13.1181 26.3186 13.7011 27.298 13.7011Z" fill="#FD8F5F"/>
</g>
<path d="M51.598 20.144C49.618 20.144 48.034 19.61 46.846 18.542L47.422 17.408C48.046 17.936 48.682 18.314 49.33 18.542C49.99 18.77 50.752 18.884 51.616 18.884C52.636 18.884 53.422 18.686 53.974 18.29C54.526 17.894 54.802 17.336 54.802 16.616C54.802 16.196 54.67 15.854 54.406 15.59C54.142 15.326 53.794 15.116 53.362 14.96C52.93 14.804 52.348 14.642 51.616 14.474C50.632 14.246 49.822 14.006 49.186 13.754C48.562 13.502 48.052 13.142 47.656 12.674C47.272 12.206 47.08 11.594 47.08 10.838C47.08 10.118 47.266 9.482 47.638 8.93C48.022 8.366 48.562 7.934 49.258 7.634C49.966 7.322 50.782 7.166 51.706 7.166C52.582 7.166 53.398 7.304 54.154 7.58C54.922 7.856 55.57 8.252 56.098 8.768L55.54 9.902C54.94 9.386 54.328 9.014 53.704 8.786C53.092 8.546 52.426 8.426 51.706 8.426C50.722 8.426 49.948 8.636 49.384 9.056C48.832 9.464 48.556 10.04 48.556 10.784C48.556 11.42 48.802 11.9 49.294 12.224C49.786 12.548 50.53 12.824 51.526 13.052C52.618 13.316 53.476 13.562 54.1 13.79C54.724 14.006 55.24 14.336 55.648 14.78C56.068 15.224 56.278 15.818 56.278 16.562C56.278 17.282 56.086 17.912 55.702 18.452C55.33 18.992 54.79 19.412 54.082 19.712C53.374 20 52.546 20.144 51.598 20.144ZM62.9786 18.956C63.2426 18.956 63.5066 18.938 63.7706 18.902L63.6986 20.054C63.4226 20.102 63.1226 20.126 62.7986 20.126C61.7426 20.126 60.9446 19.85 60.4046 19.298C59.8766 18.746 59.6126 17.978 59.6126 16.994V12.386H57.9026V11.234H59.6126V8.57H61.0706V11.234H63.5546V12.386H61.0706V16.886C61.0706 18.266 61.7066 18.956 62.9786 18.956ZM73.3078 15.842H66.8998C66.9478 16.862 67.2238 17.636 67.7278 18.164C68.2318 18.68 68.9458 18.938 69.8698 18.938C70.8898 18.938 71.8258 18.59 72.6778 17.894L73.1638 18.956C72.7798 19.316 72.2878 19.604 71.6878 19.82C71.0878 20.024 70.4758 20.126 69.8518 20.126C68.4838 20.126 67.4038 19.724 66.6118 18.92C65.8318 18.116 65.4418 17.006 65.4418 15.59C65.4418 14.69 65.6158 13.898 65.9638 13.214C66.3118 12.518 66.7978 11.978 67.4218 11.594C68.0578 11.21 68.7778 11.018 69.5818 11.018C70.7458 11.018 71.6578 11.402 72.3178 12.17C72.9778 12.926 73.3078 13.97 73.3078 15.302V15.842ZM69.5998 12.152C68.8318 12.152 68.2138 12.392 67.7458 12.872C67.2898 13.352 67.0198 14.03 66.9358 14.906H72.0298C72.0058 14.018 71.7838 13.34 71.3638 12.872C70.9438 12.392 70.3558 12.152 69.5998 12.152ZM80.586 11.018C81.354 11.018 82.032 11.21 82.62 11.594C83.208 11.978 83.664 12.518 83.988 13.214C84.312 13.898 84.474 14.696 84.474 15.608C84.474 16.52 84.312 17.318 83.988 18.002C83.664 18.674 83.208 19.196 82.62 19.568C82.044 19.94 81.366 20.126 80.586 20.126C79.902 20.126 79.302 19.976 78.786 19.676C78.282 19.376 77.898 18.95 77.634 18.398V23.24H76.176V11.234H77.634V12.746C77.898 12.194 78.282 11.768 78.786 11.468C79.302 11.168 79.902 11.018 80.586 11.018ZM80.298 18.92C81.15 18.92 81.81 18.632 82.278 18.056C82.746 17.48 82.98 16.664 82.98 15.608C82.98 14.552 82.746 13.73 82.278 13.142C81.81 12.542 81.15 12.242 80.298 12.242C79.446 12.242 78.786 12.53 78.318 13.106C77.862 13.682 77.634 14.504 77.634 15.572C77.634 16.64 77.862 17.468 78.318 18.056C78.786 18.632 79.446 18.92 80.298 18.92ZM97.1432 11.018C97.9112 11.018 98.5892 11.204 99.1772 11.576C99.7652 11.948 100.221 12.476 100.545 13.16C100.869 13.844 101.031 14.636 101.031 15.536C101.031 16.448 100.869 17.252 100.545 17.948C100.221 18.632 99.7652 19.166 99.1772 19.55C98.5892 19.934 97.9112 20.126 97.1432 20.126C96.4592 20.126 95.8592 19.976 95.3432 19.676C94.8392 19.376 94.4552 18.95 94.1912 18.398V20H92.7332V7.31H94.1912V12.746C94.4552 12.194 94.8392 11.768 95.3432 11.468C95.8592 11.168 96.4592 11.018 97.1432 11.018ZM96.8552 18.92C97.7072 18.92 98.3672 18.626 98.8352 18.038C99.3032 17.438 99.5372 16.604 99.5372 15.536C99.5372 14.492 99.3032 13.682 98.8352 13.106C98.3672 12.53 97.7072 12.242 96.8552 12.242C96.0032 12.242 95.3432 12.53 94.8752 13.106C94.4192 13.682 94.1912 14.504 94.1912 15.572C94.1912 16.64 94.4192 17.468 94.8752 18.056C95.3432 18.632 96.0032 18.92 96.8552 18.92ZM110.106 11.252H111.564L106.38 23.24H104.886L106.362 19.892L102.654 11.252H104.202L107.136 18.416L110.106 11.252ZM123.399 20.144C121.419 20.144 119.835 19.61 118.647 18.542L119.223 17.408C119.847 17.936 120.483 18.314 121.131 18.542C121.791 18.77 122.553 18.884 123.417 18.884C124.437 18.884 125.223 18.686 125.775 18.29C126.327 17.894 126.603 17.336 126.603 16.616C126.603 16.196 126.471 15.854 126.207 15.59C125.943 15.326 125.595 15.116 125.163 14.96C124.731 14.804 124.149 14.642 123.417 14.474C122.433 14.246 121.623 14.006 120.987 13.754C120.363 13.502 119.853 13.142 119.457 12.674C119.073 12.206 118.881 11.594 118.881 10.838C118.881 10.118 119.067 9.482 119.439 8.93C119.823 8.366 120.363 7.934 121.059 7.634C121.767 7.322 122.583 7.166 123.507 7.166C124.383 7.166 125.199 7.304 125.955 7.58C126.723 7.856 127.371 8.252 127.899 8.768L127.341 9.902C126.741 9.386 126.129 9.014 125.505 8.786C124.893 8.546 124.227 8.426 123.507 8.426C122.523 8.426 121.749 8.636 121.185 9.056C120.633 9.464 120.357 10.04 120.357 10.784C120.357 11.42 120.603 11.9 121.095 12.224C121.587 12.548 122.331 12.824 123.327 13.052C124.419 13.316 125.277 13.562 125.901 13.79C126.525 14.006 127.041 14.336 127.449 14.78C127.869 15.224 128.079 15.818 128.079 16.562C128.079 17.282 127.887 17.912 127.503 18.452C127.131 18.992 126.591 19.412 125.883 19.712C125.175 20 124.347 20.144 123.399 20.144ZM134.78 18.956C135.044 18.956 135.308 18.938 135.572 18.902L135.5 20.054C135.224 20.102 134.924 20.126 134.6 20.126C133.544 20.126 132.746 19.85 132.206 19.298C131.678 18.746 131.414 17.978 131.414 16.994V12.386H129.704V11.234H131.414V8.57H132.872V11.234H135.356V12.386H132.872V16.886C132.872 18.266 133.508 18.956 134.78 18.956ZM145.109 15.842H138.701C138.749 16.862 139.025 17.636 139.529 18.164C140.033 18.68 140.747 18.938 141.671 18.938C142.691 18.938 143.627 18.59 144.479 17.894L144.965 18.956C144.581 19.316 144.089 19.604 143.489 19.82C142.889 20.024 142.277 20.126 141.653 20.126C140.285 20.126 139.205 19.724 138.413 18.92C137.633 18.116 137.243 17.006 137.243 15.59C137.243 14.69 137.417 13.898 137.765 13.214C138.113 12.518 138.599 11.978 139.223 11.594C139.859 11.21 140.579 11.018 141.383 11.018C142.547 11.018 143.459 11.402 144.119 12.17C144.779 12.926 145.109 13.97 145.109 15.302V15.842ZM141.401 12.152C140.633 12.152 140.015 12.392 139.547 12.872C139.091 13.352 138.821 14.03 138.737 14.906H143.831C143.807 14.018 143.585 13.34 143.165 12.872C142.745 12.392 142.157 12.152 141.401 12.152ZM152.387 11.018C153.155 11.018 153.833 11.21 154.421 11.594C155.009 11.978 155.465 12.518 155.789 13.214C156.113 13.898 156.275 14.696 156.275 15.608C156.275 16.52 156.113 17.318 155.789 18.002C155.465 18.674 155.009 19.196 154.421 19.568C153.845 19.94 153.167 20.126 152.387 20.126C151.703 20.126 151.103 19.976 150.587 19.676C150.083 19.376 149.699 18.95 149.435 18.398V23.24H147.977V11.234H149.435V12.746C149.699 12.194 150.083 11.768 150.587 11.468C151.103 11.168 151.703 11.018 152.387 11.018ZM152.099 18.92C152.951 18.92 153.611 18.632 154.079 18.056C154.547 17.48 154.781 16.664 154.781 15.608C154.781 14.552 154.547 13.73 154.079 13.142C153.611 12.542 152.951 12.242 152.099 12.242C151.247 12.242 150.587 12.53 150.119 13.106C149.663 13.682 149.435 14.504 149.435 15.572C149.435 16.64 149.663 17.468 150.119 18.056C150.587 18.632 151.247 18.92 152.099 18.92Z" fill="#FD8F5F"/>
<defs>
<clipPath id="clip0">
<rect width="30" height="30" fill="white"/>
</clipPath>
</defs>
</svg>
