<svg width="92" height="92" viewBox="0 0 92 92" fill="none" xmlns="http://www.w3.org/2000/svg">
<rect width="92" height="92" rx="15" fill="#FD8F5F"/>
<path d="M33.6 34.2C31.9999 32.5999 25.2 32.2 22.9999 31.9999C22.8 31.9999 22.5999 31.9999 22.3999 32.1999C22.2 32.4 22 32.8 22 33V51C22 51.6 22.4 52 23 52H29C29.4001 52 29.8 51.8 30.0001 51.4C30.0001 50.8 33.6001 40.2 34.0001 35C34 34.8 34 34.4 33.6 34.2Z" fill="white"/>
<path d="M55.0001 39C53.0001 38.4 51.2001 37.6 49.6001 37C46.0001 35.4 44.4001 36.2 41.2001 39.4C39.8001 40.8 38.8001 42.8 39.0001 43.6C39.0001 43.8 39.0001 43.8 39.4001 44C40.4001 44.4001 41.8001 44.6 43.2001 42.4C43.4001 42.2 43.6001 42 44.0001 42C44.6001 42 44.8 41.8 45.4 41.5999C45.8001 41.4 46.2 41.1999 46.8 40.9999C47 40.9999 47 40.9999 47.2 40.9999C47.4 40.9999 47.8 41.1999 48 41.1999C49.0001 42.2 50.8001 43.6 52.6001 45.2C55.4001 47.4001 58.2001 49.8001 59.6001 51.6001H59.8001C58.4002 47.6 56.0002 40.8 55.0001 39Z" fill="white"/>
<path d="M69.0001 34C61.2 34 56.8001 36 56.6 36C56.4 36.1999 56.2 36.4 56 36.6C56 36.7999 56 37.2 56.2 37.3999C57.4 39.3999 61.4 50.4 62 53.1999C62.2 53.5999 62.6 53.9999 63 53.9999H69.0001C69.6001 53.9999 70.0001 53.5998 70.0001 52.9998V34.9998C70.0001 34.4 69.6001 34 69.0001 34Z" fill="white"/>
<path d="M58.2003 53.6001C57.4003 51.8001 54.0003 49.2001 51.0003 46.8001C49.4004 45.4 47.8003 44.2 46.6003 43.2C46.4004 43.4 46.0003 43.4 46.0003 43.6C45.4003 43.8 45.2004 44.0001 44.4003 44.0001C42.8004 46 40.8003 46.8 38.6004 46C37.6003 45.8001 37.0003 45 36.8004 44.2C36.4003 42.2001 38.2003 39.4 39.6004 38.0001H35.6004C34.8004 42.0001 33.4003 47.2 32.4004 50.0001C33.2004 50.8 34.0004 51.8001 34.6004 52.2001C38.4004 55.4001 42.8005 58.6001 43.6004 59.2001C44.2004 59.6002 45.4004 60.0001 46.0004 60.0001C46.2004 60.0001 46.4005 60.0001 46.6004 60.0001L43.4004 56.8C43.0003 56.4 43.0003 55.8 43.4004 55.4001C43.8004 55.0001 44.4004 55 44.8003 55.4001L48.8004 59.4001C49.2004 59.8001 49.6003 59.6001 50.0004 59.6001C50.6004 59.4001 50.8003 59.0001 51.0004 58.4001L46.4004 53.8C46.0003 53.4 46.0003 52.8 46.4004 52.4001C46.8004 52.0001 47.4004 52 47.8003 52.4001L52.8003 57.4C53.0003 57.6 53.8003 57.6 54.4003 57.4C54.6003 57.2001 55.0003 57 55.2003 56.6001L49.6003 51C49.2003 50.6 49.2003 50 49.6003 49.6C50.0004 49.2001 50.6004 49.2 51.0003 49.6L56.8003 55.4001C57.2004 55.6 57.6003 55.4001 58.0003 55.2001C58.2003 55 58.6003 54.4 58.2003 53.6001Z" fill="white"/>
</svg>
