<svg width="118" height="30" viewBox="0 0 118 30" fill="none" xmlns="http://www.w3.org/2000/svg">
<g clip-path="url(#clip0)">
<path d="M2.03516 22.3357V27.1986C2.03516 27.4945 2.27553 27.741 2.57754 27.741H6.33722C6.63307 27.741 6.87961 27.5006 6.87961 27.1986V18.6438L4.14921 21.3742C3.56985 21.9474 2.83024 22.2802 2.03516 22.3357Z" fill="#FD8F5F"/>
<path d="M8.75977 18.5833V27.1997C8.75977 27.4956 9.00014 27.7421 9.30215 27.7421H13.0618C13.3577 27.7421 13.6042 27.5017 13.6042 27.1997V22.1272C12.7475 22.1087 11.9463 21.7697 11.3422 21.1657L8.75977 18.5833Z" fill="#FD8F5F"/>
<path d="M15.4688 21.589V27.1978C15.4688 27.4936 15.7091 27.7401 16.0111 27.7401H19.7708C20.0667 27.7401 20.3132 27.4998 20.3132 27.1978V16.8494L16.005 21.1576C15.8386 21.324 15.6598 21.4658 15.4688 21.589Z" fill="#FD8F5F"/>
<path d="M26.6586 10.4883L22.1777 14.9691V27.1973C22.1777 27.4932 22.4181 27.7397 22.7201 27.7397H26.4798C26.7757 27.7397 27.0222 27.4993 27.0222 27.1973V10.8273C26.8989 10.7225 26.8065 10.63 26.7387 10.5684L26.6586 10.4883Z" fill="#FD8F5F"/>
<path d="M29.7447 2.55103C29.566 2.35997 29.2948 2.26135 28.9496 2.26135C28.9188 2.26135 28.8818 2.26135 28.851 2.26135C27.1006 2.34148 25.3563 2.42777 23.6059 2.50789C23.3717 2.52022 23.0512 2.53254 22.7985 2.78524C22.7184 2.86537 22.6568 2.95782 22.6074 3.06876C22.3486 3.62963 22.7122 3.99328 22.8848 4.16585L23.3224 4.60962C23.6244 4.91779 23.9326 5.22596 24.2408 5.52797L13.6643 16.1106L8.91231 11.3586C8.6288 11.0751 8.24666 10.9148 7.83988 10.9148C7.43309 10.9148 7.05712 11.0751 6.7736 11.3586L0.443767 17.6823C-0.147922 18.2739 -0.147922 19.2293 0.443767 19.821L0.727284 20.1045C1.0108 20.388 1.39293 20.5483 1.79972 20.5483C2.20651 20.5483 2.58248 20.388 2.86599 20.1045L7.83988 15.1306L12.5919 19.8826C12.8754 20.1661 13.2575 20.3264 13.6643 20.3264C14.0711 20.3264 14.4471 20.1661 14.7368 19.8826L26.6691 7.9502L28.0189 9.29383C28.1792 9.45408 28.4011 9.67596 28.7401 9.67596C28.8818 9.67596 29.0236 9.63898 29.1715 9.55885C29.2701 9.50338 29.3564 9.44175 29.4304 9.36779C29.6954 9.10276 29.7447 8.76377 29.757 8.49874C29.8063 7.36467 29.8618 6.2306 29.9173 5.09037L29.9974 3.3831C30.0159 3.02562 29.9358 2.74826 29.7447 2.55103Z" fill="#FD8F5F"/>
</g>
<path d="M54.766 14.484C55.498 14.676 56.062 15.036 56.458 15.564C56.866 16.092 57.07 16.752 57.07 17.544C57.07 18.66 56.704 19.518 55.972 20.118C55.24 20.706 54.202 21 52.858 21H47.566V8.31H52.66C53.968 8.31 54.982 8.598 55.702 9.174C56.422 9.75 56.782 10.566 56.782 11.622C56.782 12.306 56.602 12.894 56.242 13.386C55.894 13.878 55.402 14.244 54.766 14.484ZM49.024 13.944H52.444C53.392 13.944 54.106 13.752 54.586 13.368C55.078 12.984 55.324 12.426 55.324 11.694C55.324 10.254 54.364 9.534 52.444 9.534H49.024V13.944ZM52.714 19.776C53.71 19.776 54.442 19.596 54.91 19.236C55.39 18.864 55.63 18.288 55.63 17.508C55.63 15.948 54.658 15.168 52.714 15.168H49.024V19.776H52.714ZM67.5429 16.842H61.1349C61.1829 17.862 61.4589 18.636 61.9629 19.164C62.4669 19.68 63.1809 19.938 64.1049 19.938C65.1249 19.938 66.0609 19.59 66.9129 18.894L67.3989 19.956C67.0149 20.316 66.5229 20.604 65.9229 20.82C65.3229 21.024 64.7109 21.126 64.0869 21.126C62.7189 21.126 61.6389 20.724 60.8469 19.92C60.0669 19.116 59.6769 18.006 59.6769 16.59C59.6769 15.69 59.8509 14.898 60.1989 14.214C60.5469 13.518 61.0329 12.978 61.6569 12.594C62.2929 12.21 63.0129 12.018 63.8169 12.018C64.9809 12.018 65.8929 12.402 66.5529 13.17C67.2129 13.926 67.5429 14.97 67.5429 16.302V16.842ZM63.8349 13.152C63.0669 13.152 62.4489 13.392 61.9809 13.872C61.5249 14.352 61.2549 15.03 61.1709 15.906H66.2649C66.2409 15.018 66.0189 14.34 65.5989 13.872C65.1789 13.392 64.5909 13.152 63.8349 13.152ZM77.7551 16.842H71.3471C71.3951 17.862 71.6711 18.636 72.1751 19.164C72.6791 19.68 73.3931 19.938 74.3171 19.938C75.3371 19.938 76.2731 19.59 77.1251 18.894L77.6111 19.956C77.2271 20.316 76.7351 20.604 76.1351 20.82C75.5351 21.024 74.9231 21.126 74.2991 21.126C72.9311 21.126 71.8511 20.724 71.0591 19.92C70.2791 19.116 69.8891 18.006 69.8891 16.59C69.8891 15.69 70.0631 14.898 70.4111 14.214C70.7591 13.518 71.2451 12.978 71.8691 12.594C72.5051 12.21 73.2251 12.018 74.0291 12.018C75.1931 12.018 76.1051 12.402 76.7651 13.17C77.4251 13.926 77.7551 14.97 77.7551 16.302V16.842ZM74.0471 13.152C73.2791 13.152 72.6611 13.392 72.1931 13.872C71.7371 14.352 71.4671 15.03 71.3831 15.906H76.4771C76.4531 15.018 76.2311 14.34 75.8111 13.872C75.3911 13.392 74.8031 13.152 74.0471 13.152ZM85.0333 12.018C87.1333 12.018 88.1833 13.176 88.1833 15.492V21H86.7253V15.582C86.7253 14.766 86.5633 14.172 86.2393 13.8C85.9273 13.428 85.4233 13.242 84.7273 13.242C83.9233 13.242 83.2813 13.488 82.8013 13.98C82.3213 14.472 82.0813 15.138 82.0813 15.978V21H80.6233V12.234H82.0633V13.674C82.3513 13.134 82.7533 12.726 83.2693 12.45C83.7853 12.162 84.3733 12.018 85.0333 12.018ZM98.9178 16.842H92.5098C92.5578 17.862 92.8338 18.636 93.3378 19.164C93.8418 19.68 94.5558 19.938 95.4798 19.938C96.4998 19.938 97.4358 19.59 98.2878 18.894L98.7738 19.956C98.3898 20.316 97.8978 20.604 97.2978 20.82C96.6978 21.024 96.0858 21.126 95.4618 21.126C94.0938 21.126 93.0138 20.724 92.2218 19.92C91.4418 19.116 91.0518 18.006 91.0518 16.59C91.0518 15.69 91.2258 14.898 91.5738 14.214C91.9218 13.518 92.4078 12.978 93.0318 12.594C93.6678 12.21 94.3878 12.018 95.1918 12.018C96.3558 12.018 97.2678 12.402 97.9278 13.17C98.5878 13.926 98.9178 14.97 98.9178 16.302V16.842ZM95.2098 13.152C94.4418 13.152 93.8238 13.392 93.3558 13.872C92.8998 14.352 92.6298 15.03 92.5458 15.906H97.6398C97.6158 15.018 97.3938 14.34 96.9738 13.872C96.5538 13.392 95.9658 13.152 95.2098 13.152ZM103.712 12.234H109.112V21H107.654V13.386H103.712V21H102.254V13.386H100.544V12.234H102.254V11.946C102.254 10.77 102.548 9.882 103.136 9.282C103.724 8.682 104.624 8.352 105.836 8.292L106.502 8.256L106.592 9.39L105.764 9.444C105.044 9.492 104.522 9.702 104.198 10.074C103.874 10.446 103.712 11.004 103.712 11.748V12.234ZM107.492 8.418H109.292V10.092H107.492V8.418ZM116.395 19.956C116.659 19.956 116.923 19.938 117.187 19.902L117.115 21.054C116.839 21.102 116.539 21.126 116.215 21.126C115.159 21.126 114.361 20.85 113.821 20.298C113.293 19.746 113.029 18.978 113.029 17.994V13.386H111.319V12.234H113.029V9.57H114.487V12.234H116.971V13.386H114.487V17.886C114.487 19.266 115.123 19.956 116.395 19.956Z" fill="#FD8F5F"/>
<defs>
<clipPath id="clip0">
<rect width="30" height="30" fill="white"/>
</clipPath>
</defs>
</svg>
