<svg width="30" height="30" viewBox="0 0 30 30" fill="none" xmlns="http://www.w3.org/2000/svg">
<g clip-path="url(#clip0)">
<path d="M14.4887 10.0834C13.786 10.7652 12.9898 11.5382 12.5858 12.4452C12.4647 12.7169 12.4894 13.0316 12.6517 13.2813C12.8137 13.531 13.0912 13.6816 13.3887 13.6816H16.4434C16.9288 13.6816 17.3223 13.288 17.3223 12.8027C17.3223 12.3173 16.9288 11.9238 16.4434 11.9238H15.1284C15.3205 11.7256 15.5207 11.5311 15.713 11.3448C16.5766 10.5066 17.3225 9.78264 17.3225 8.8765C17.3225 7.53593 16.2319 6.44531 14.8915 6.44531C13.9119 6.44531 13.0332 7.02827 12.6528 7.93076C12.4642 8.37799 12.6739 8.89343 13.1211 9.08203C13.5686 9.27086 14.084 9.06097 14.2724 8.61374C14.3777 8.36426 14.6205 8.20312 14.8915 8.20312C15.2568 8.20312 15.5553 8.49586 15.5645 8.85933C15.4969 9.10469 14.8911 9.69269 14.4887 10.0834Z" fill="#FD8F5F"/>
<path d="M1.52996 9.84363L1.90212 9.47124V11.9168H1.28757C0.802117 11.9168 0.408669 12.3103 0.408669 12.7957C0.408669 13.2812 0.802117 13.6746 1.28757 13.6746H4.27402C4.75925 13.6746 5.15293 13.2812 5.15293 12.7957C5.15293 12.3103 4.75925 11.9168 4.27402 11.9168H3.65993V7.34791C3.65993 6.99245 3.4457 6.67179 3.11726 6.53606C2.78881 6.39988 2.4107 6.47541 2.15939 6.72672L0.286446 8.60126C-0.0566481 8.94458 -0.0564193 9.50122 0.287132 9.84432C0.630455 10.1872 1.18687 10.1872 1.52996 9.84363Z" fill="#FD8F5F"/>
<path d="M27.3328 15.0623C26.621 15.0623 25.9518 15.3397 25.4485 15.8432C24.9451 16.3467 24.668 17.0162 24.668 17.728C24.668 19.1979 25.8634 20.3938 27.3328 20.3941C28.0447 20.3941 28.7139 20.1167 29.2172 19.6131C29.7205 19.1096 29.9977 18.4401 29.9977 17.7283C29.9977 16.2582 28.8023 15.0623 27.3328 15.0623Z" fill="#FD8F5F"/>
<path d="M14.9266 20.3938C15.6384 20.3938 16.3077 20.1164 16.811 19.6129C17.3143 19.1093 17.5912 18.4401 17.5912 17.728C17.5912 16.2582 16.3958 15.0623 14.9266 15.0623C14.9264 15.0623 14.9266 15.0623 14.9264 15.0623C14.2145 15.0623 13.5453 15.3394 13.042 15.8432C12.5389 16.3465 12.2617 17.016 12.2617 17.728C12.2617 19.1979 13.4572 20.3938 14.9266 20.3938Z" fill="#FD8F5F"/>
<path d="M8.04474 17.807C8.04474 17.3488 7.67349 16.9775 7.21573 16.9775C6.75774 16.9775 6.38672 17.3488 6.38672 17.807C6.38672 18.265 6.75774 18.6365 7.21573 18.6365C7.67349 18.6365 8.04474 18.265 8.04474 17.807Z" fill="#FD8F5F"/>
<path d="M11.2379 17.807C11.2379 17.3488 10.8669 16.9775 10.4091 16.9775C9.9511 16.9775 9.58008 17.3488 9.58008 17.807C9.58008 18.265 9.9511 18.6365 10.4091 18.6365C10.8669 18.6365 11.2379 18.265 11.2379 17.807Z" fill="#FD8F5F"/>
<path d="M20.2752 17.807C20.2752 17.3488 19.9042 16.9775 19.4462 16.9775C18.9884 16.9775 18.6172 17.3488 18.6172 17.807C18.6172 18.265 18.9884 18.6365 19.4462 18.6365C19.9042 18.6365 20.2752 18.265 20.2752 17.807Z" fill="#FD8F5F"/>
<path d="M23.4686 17.807C23.4686 17.3488 23.0975 16.9775 22.6396 16.9775C22.1818 16.9775 21.8105 17.3488 21.8105 17.807C21.8105 18.265 22.1818 18.6365 22.6396 18.6365C23.0975 18.6365 23.4686 18.265 23.4686 17.807Z" fill="#FD8F5F"/>
<path d="M17.2025 21.7731H12.832C12.3466 21.7731 11.9531 22.1665 11.9531 22.652C11.9531 23.1374 12.3466 23.5309 12.832 23.5309H17.2025C17.688 23.5309 18.0814 23.1374 18.0814 22.652C18.0814 22.1665 17.688 21.7731 17.2025 21.7731Z" fill="#FD8F5F"/>
<path d="M4.52751 15.1758L2.09198 17.6185L1.50055 17.0268C1.15746 16.6832 0.601044 16.6832 0.257721 17.0263C-0.0858307 17.3694 -0.0858307 17.9258 0.257263 18.2692L1.47102 19.4836C1.63582 19.6487 1.85944 19.7414 2.09267 19.7414H2.09312C2.32636 19.7414 2.5502 19.6484 2.715 19.4832L5.77217 16.417C6.11504 16.0733 6.11412 15.5168 5.77034 15.1742C5.42679 14.8313 4.87015 14.8323 4.52751 15.1758Z" fill="#FD8F5F"/>
<path d="M27.298 13.7011C28.623 13.7011 29.6907 12.6441 29.7287 11.2946C29.7383 10.9499 29.69 10.0747 29.0327 9.39857C28.9249 9.28757 28.7869 9.16946 28.6141 9.06166L29.4946 7.8756C29.6925 7.60895 29.7234 7.25327 29.5742 6.95663C29.425 6.66 29.121 6.47278 28.7889 6.47278H26.1538C25.6683 6.47278 25.2749 6.86623 25.2749 7.35168C25.2749 7.83714 25.6683 8.23059 26.1538 8.23059H27.0419L26.4475 9.03099C26.2495 9.29764 26.2186 9.65309 26.368 9.94995C26.5173 10.2466 26.821 10.4338 27.1531 10.4338C27.4413 10.4338 27.6498 10.4979 27.7725 10.624C27.9279 10.784 27.9768 11.0587 27.9716 11.2454C27.9606 11.6368 27.6647 11.9433 27.298 11.9433C27.0272 11.9433 26.7844 11.7822 26.6791 11.5329C26.4907 11.0854 25.975 10.8758 25.5278 11.0644C25.0806 11.253 24.8709 11.7684 25.0595 12.2157C25.4399 13.1181 26.3186 13.7011 27.298 13.7011Z" fill="#FD8F5F"/>
</g>
<defs>
<clipPath id="clip0">
<rect width="30" height="30" fill="white"/>
</clipPath>
</defs>
</svg>
