<svg width="99" height="30" viewBox="0 0 99 30" fill="none" xmlns="http://www.w3.org/2000/svg">
<g clip-path="url(#clip0)">
<path d="M17.0295 19.9283C16.9175 19.8056 16.7758 19.7139 16.6293 19.6374C16.3103 19.4711 15.9616 19.3702 15.6152 19.2792V21.9628C16.1774 21.8992 16.8227 21.6952 17.1178 21.1705C17.2587 20.9198 17.2868 20.6118 17.2294 20.3328C17.1982 20.1815 17.1339 20.0428 17.0295 19.9283Z" fill="#F1D204"/>
<path d="M17.1094 21.1758C17.1105 21.1739 17.1111 21.1727 17.1123 21.1707C17.1113 21.1723 17.1104 21.174 17.1094 21.1758Z" fill="#F1D204"/>
<path d="M12.9703 15.6379C12.8737 15.779 12.8131 15.9394 12.7963 16.1098C12.7796 16.2805 12.789 16.4705 12.8539 16.6312C12.9156 16.7844 13.045 16.8975 13.1786 16.9886C13.3284 17.0905 13.4933 17.1701 13.6611 17.2376C13.802 17.2943 13.9604 17.3485 14.1311 17.4009V14.9725C13.6998 15.0646 13.2284 15.2611 12.9703 15.6379Z" fill="#F1D204"/>
<path d="M17.1205 21.1505C17.1169 21.1568 17.1131 21.1634 17.1094 21.1703C17.1137 21.1622 17.1172 21.1563 17.1205 21.1505Z" fill="#F1D204"/>
<path d="M16.5623 6.52752C18.8445 4.61039 20.3694 0.291389 19.4309 0.102486C18.184 -0.148608 15.4762 0.952408 14.1675 1.14639C12.3112 1.37052 10.2895 -0.866524 9.15463 0.380405C8.23193 1.39424 9.81615 5.08124 12.2947 6.68748C4.90008 10.3218 -5.49354 28.5665 12.6387 29.8903C37.7277 31.7221 25.1647 10.0691 16.5623 6.52752ZM18.717 20.9161C18.6398 21.6274 18.2628 22.2706 17.6994 22.7073C17.1044 23.1684 16.3582 23.3829 15.6168 23.4429V24.2288C15.6168 24.4391 15.525 24.6425 15.3675 24.7817C15.1512 24.9732 14.8332 25.0204 14.5706 24.8994C14.3113 24.7801 14.141 24.5142 14.141 24.2288V23.3699C14.0139 23.3457 13.8877 23.317 13.7629 23.2828C13.07 23.0924 12.4273 22.7213 11.9578 22.1722C11.7239 21.8985 11.5332 21.588 11.4014 21.2528C11.3669 21.1652 11.3362 21.0759 11.3093 20.9857C11.2849 20.904 11.2598 20.821 11.2511 20.7359C11.2365 20.5931 11.2648 20.4474 11.3314 20.3202C11.4682 20.0585 11.7565 19.9005 12.0509 19.9267C12.3406 19.9524 12.5945 20.1535 12.6857 20.4296C12.7138 20.5147 12.7328 20.6018 12.7644 20.686C12.7957 20.7696 12.8334 20.8508 12.8778 20.9282C12.9655 21.0805 13.0754 21.221 13.2019 21.3429C13.4626 21.5942 13.7948 21.7574 14.141 21.8546V18.9348C13.464 18.7595 12.7651 18.5331 12.206 18.0984C11.9343 17.887 11.7038 17.6244 11.5528 17.3136C11.3934 16.9856 11.3274 16.6201 11.3248 16.2571C11.322 15.8886 11.392 15.5233 11.5458 15.1875C11.6898 14.8731 11.8971 14.5908 12.1513 14.3568C12.6949 13.8565 13.4169 13.5774 14.1411 13.4749V13.4107V12.6591C14.1411 12.4489 14.2329 12.2454 14.3903 12.1062C14.6068 11.9149 14.9246 11.8676 15.1872 11.9885C15.4465 12.1079 15.6169 12.3738 15.6169 12.6591V13.4107V13.4705C15.7134 13.4826 15.8096 13.4972 15.9053 13.5145C16.6164 13.6432 17.312 13.9369 17.832 14.4496C18.0784 14.6924 18.2801 14.9818 18.4219 15.2973C18.4615 15.3853 18.4962 15.4754 18.5262 15.5673C18.5541 15.6529 18.5822 15.7411 18.5955 15.8304C18.6169 15.9731 18.5951 16.1205 18.5341 16.251C18.409 16.5184 18.1284 16.6887 17.8333 16.676C17.5433 16.6634 17.2806 16.4746 17.1767 16.2035C17.1458 16.1229 17.1303 16.0375 17.0988 15.9571C17.067 15.8757 17.0257 15.7981 16.9782 15.7247C16.8859 15.5822 16.7662 15.4599 16.6296 15.3592C16.3339 15.1407 15.9751 15.0269 15.6167 14.9633V17.7575C16.0427 17.8595 16.469 17.9708 16.8772 18.1317C17.4941 18.375 18.0787 18.748 18.4154 19.3361C18.3632 19.2445 18.3123 19.1552 18.4172 19.3392C18.5201 19.5199 18.471 19.4338 18.4193 19.3432C18.6872 19.8153 18.7752 20.3798 18.717 20.9161Z" fill="#F1D204"/>
<path d="M17.1067 21.189C17.1024 21.1967 17.0987 21.2034 17.0957 21.2086C17.0982 21.2041 17.1021 21.1974 17.1067 21.189Z" fill="#F1D204"/>
</g>
<path d="M58.348 8.31H59.554V21H58.204L58.222 11.172L54.1 18.984H53.056L48.916 11.244L48.934 21H47.566V8.31H48.79L53.596 17.508L58.348 8.31ZM66.8408 21.126C66.0128 21.126 65.2808 20.94 64.6448 20.568C64.0208 20.196 63.5348 19.668 63.1868 18.984C62.8508 18.288 62.6828 17.484 62.6828 16.572C62.6828 15.66 62.8508 14.862 63.1868 14.178C63.5348 13.482 64.0208 12.948 64.6448 12.576C65.2808 12.204 66.0128 12.018 66.8408 12.018C67.6688 12.018 68.4008 12.204 69.0368 12.576C69.6728 12.948 70.1588 13.482 70.4948 14.178C70.8428 14.862 71.0168 15.66 71.0168 16.572C71.0168 17.484 70.8428 18.288 70.4948 18.984C70.1588 19.668 69.6728 20.196 69.0368 20.568C68.4008 20.94 67.6688 21.126 66.8408 21.126ZM66.8408 19.92C67.7048 19.92 68.3648 19.638 68.8208 19.074C69.2888 18.498 69.5228 17.664 69.5228 16.572C69.5228 15.504 69.2888 14.682 68.8208 14.106C68.3528 13.518 67.6928 13.224 66.8408 13.224C65.9888 13.224 65.3288 13.518 64.8608 14.106C64.3928 14.682 64.1588 15.504 64.1588 16.572C64.1588 17.652 64.3868 18.48 64.8428 19.056C65.3108 19.632 65.9768 19.92 66.8408 19.92ZM81.6851 8.31V21H80.2271V19.398C79.9631 19.95 79.5731 20.376 79.0571 20.676C78.5531 20.976 77.9591 21.126 77.2751 21.126C76.5071 21.126 75.8291 20.934 75.2411 20.55C74.6531 20.166 74.1971 19.632 73.8731 18.948C73.5491 18.252 73.3871 17.448 73.3871 16.536C73.3871 15.636 73.5491 14.844 73.8731 14.16C74.1971 13.476 74.6531 12.948 75.2411 12.576C75.8291 12.204 76.5071 12.018 77.2751 12.018C77.9591 12.018 78.5531 12.168 79.0571 12.468C79.5731 12.768 79.9631 13.194 80.2271 13.746V8.31H81.6851ZM77.5631 19.92C78.4151 19.92 79.0691 19.632 79.5251 19.056C79.9931 18.468 80.2271 17.64 80.2271 16.572C80.2271 15.504 79.9931 14.682 79.5251 14.106C79.0691 13.53 78.4151 13.242 77.5631 13.242C76.7111 13.242 76.0451 13.53 75.5651 14.106C75.0971 14.682 74.8631 15.492 74.8631 16.536C74.8631 17.604 75.0971 18.438 75.5651 19.038C76.0451 19.626 76.7111 19.92 77.5631 19.92ZM88.6697 12.018C89.7857 12.018 90.6137 12.306 91.1537 12.882C91.7057 13.446 91.9817 14.31 91.9817 15.474V21H90.5597V19.506C90.3317 20.022 89.9837 20.424 89.5157 20.712C89.0477 20.988 88.5077 21.126 87.8957 21.126C87.3317 21.126 86.8097 21.012 86.3297 20.784C85.8617 20.556 85.4897 20.238 85.2137 19.83C84.9377 19.422 84.7997 18.972 84.7997 18.48C84.7997 17.82 84.9677 17.31 85.3037 16.95C85.6397 16.578 86.1917 16.314 86.9597 16.158C87.7277 15.99 88.7957 15.906 90.1637 15.906H90.5597V15.312C90.5597 14.58 90.4097 14.052 90.1097 13.728C89.8097 13.392 89.3237 13.224 88.6517 13.224C87.6437 13.224 86.6417 13.536 85.6457 14.16L85.1597 13.098C85.6157 12.774 86.1617 12.516 86.7977 12.324C87.4457 12.12 88.0697 12.018 88.6697 12.018ZM88.0937 19.974C88.8137 19.974 89.4017 19.734 89.8577 19.254C90.3257 18.762 90.5597 18.132 90.5597 17.364V16.842H90.2357C89.1797 16.842 88.3757 16.89 87.8237 16.986C87.2717 17.07 86.8757 17.22 86.6357 17.436C86.4077 17.64 86.2937 17.946 86.2937 18.354C86.2937 18.822 86.4617 19.212 86.7977 19.524C87.1457 19.824 87.5777 19.974 88.0937 19.974ZM95.3706 21V8.31H96.8286V21H95.3706Z" fill="#F1D204"/>
<defs>
<clipPath id="clip0">
<rect width="30" height="30" fill="white"/>
</clipPath>
</defs>
</svg>
