<svg width="24" height="24" viewBox="0 0 24 24" fill="none" xmlns="http://www.w3.org/2000/svg">
<path d="M16.4444 0C12.2667 0 8.88889 3.37778 8.88889 7.55553C8.88889 8.44442 9.06667 9.33331 9.33331 10.2222L0 19.5556V24H4.44444V21.3333H7.11111V18.6667H9.77778L13.7778 14.6667C14.5778 14.9333 15.4667 15.1111 16.4444 15.1111C20.6222 15.1111 24 11.7333 24 7.55558C24 3.37782 20.6222 0 16.4444 0ZM18.6667 8C17.1555 8 16 6.84447 16 5.33333C16 3.8222 17.1555 2.66667 18.6667 2.66667C20.1778 2.66667 21.3333 3.8222 21.3333 5.33333C21.3333 6.84447 20.1778 8 18.6667 8Z" fill="#B5B4B4"/>
</svg>
