<svg width="24" height="24" viewBox="0 0 24 24" fill="none" xmlns="http://www.w3.org/2000/svg">
<path d="M11.9999 11.7376C14.6683 11.7376 16.8316 9.11006 16.8316 5.86882C16.8316 2.62752 16.1214 0 11.9999 0C7.87837 0 7.16797 2.62752 7.16797 5.86882C7.16797 9.11006 9.33133 11.7376 11.9999 11.7376Z" fill="#B5B4B4"/>
<path d="M21.127 20.8528C21.1296 20.7987 21.1278 20.4775 21.127 20.8528V20.8528Z" fill="#B5B4B4"/>
<path d="M21.1149 20.4616C21.0254 14.8153 20.288 13.2064 14.645 12.188C14.645 12.188 13.8507 13.2002 11.9993 13.2002C10.1479 13.2002 9.35339 12.188 9.35339 12.188C3.77202 13.1953 2.98976 14.7803 2.8869 20.2782C2.87846 20.7271 2.87456 20.7507 2.87305 20.6986C2.87339 20.7962 2.8738 20.9769 2.8738 21.2918C2.8738 21.2918 4.21725 24.0001 11.9993 24.0001C19.7812 24.0001 21.1248 21.2918 21.1248 21.2918C21.1248 21.0894 21.1249 20.9487 21.1251 20.853C21.1236 20.8852 21.1206 20.8228 21.1149 20.4616Z" fill="#B5B4B4"/>
</svg>
